<svg id="Layer_1" data-name="Layer 1" xmlns="http://www.w3.org/2000/svg" viewBox="0 0 668.03 1303.02"><defs><style>.cls-1{fill:#231f20;}</style></defs><title>radio</title><path class="cls-1" d="M346.36,405.67A21.49,21.49,0,1,0,368,427.2,21.48,21.48,0,0,0,346.36,405.67Z" transform="translate(-7.97 -15.28)"/><path class="cls-1" d="M346.36,549.67A21.48,21.48,0,1,0,368,571.18,21.45,21.45,0,0,0,346.36,549.67Z" transform="translate(-7.97 -15.28)"/><path class="cls-1" d="M346.36,274.88A21.51,21.51,0,1,0,368,296.35,21.37,21.37,0,0,0,346.36,274.88Z" transform="translate(-7.97 -15.28)"/><path class="cls-1" d="M346.36,112.54A21.51,21.51,0,1,0,368,134.1,21.49,21.49,0,0,0,346.36,112.54Z" transform="translate(-7.97 -15.28)"/><path class="cls-1" d="M239.41,317.89a21.54,21.54,0,1,0,21.7,21.42A21.51,21.51,0,0,0,239.41,317.89Z" transform="translate(-7.97 -15.28)"/><path class="cls-1" d="M239.41,504.91a21.53,21.53,0,1,0-21.58-21.56A21.63,21.63,0,0,0,239.41,504.91Z" transform="translate(-7.97 -15.28)"/><path class="cls-1" d="M239.41,605.81a21.53,21.53,0,1,0,21.7,21.49A21.55,21.55,0,0,0,239.41,605.81Z" transform="translate(-7.97 -15.28)"/><path class="cls-1" d="M239.41,187a21.55,21.55,0,1,0,21.7,21.63A21.61,21.61,0,0,0,239.41,187Z" transform="translate(-7.97 -15.28)"/><path class="cls-1" d="M442.07,317.89a21.54,21.54,0,1,0,21.65,21.42A21.52,21.52,0,0,0,442.07,317.89Z" transform="translate(-7.97 -15.28)"/><path class="cls-1" d="M442.07,504.91a21.53,21.53,0,1,0-21.61-21.56A21.64,21.64,0,0,0,442.07,504.91Z" transform="translate(-7.97 -15.28)"/><path class="cls-1" d="M442.07,605.81a21.53,21.53,0,1,0,21.65,21.49A21.57,21.57,0,0,0,442.07,605.81Z" transform="translate(-7.97 -15.28)"/><path class="cls-1" d="M442.07,230.13a21.55,21.55,0,1,0-21.64-21.47A21.6,21.6,0,0,0,442.07,230.13Z" transform="translate(-7.97 -15.28)"/><path class="cls-1" d="M660.25,711.18H541V216.94c0-111.19-94.55-201.66-205.75-201.66S129.49,105.75,129.49,216.94V711.18H23.73C15,711.18,8,717.67,8,726.36S15,741.54,23.73,741.54H65.41v67.81c0,126.48,94.44,232.46,212.49,258.5v159.37H140.32c-26.06,0-47.26,19.47-47.26,45.53s21.2,45.53,47.26,45.53H540.51c26.06,0,47.26-19.47,47.26-45.53s-21.2-45.53-47.26-45.53H389.2V1067.86c121.42-26,212.49-132,212.49-258.5V741.54h58.55c8.7,0,15.75-6.48,15.75-15.18S668.95,711.18,660.25,711.18ZM159.85,216.94c0-93.82,81.56-170.15,175.39-170.15s175.39,76.33,175.39,170.15V711.18H159.85Zm0,524.6H510.63V806.2c0,93.83-81.56,170.16-175.39,170.16S159.85,900,159.85,806.2Zm396.41,531.23c0,8.69-7.07,15.18-15.75,15.18H140.32c-8.69,0-15.75-6.49-15.75-15.18s7.07-15.18,15.75-15.18H540.51C549.2,1257.59,556.26,1264.08,556.26,1272.76Zm-197.41-45.53H308.26V1072.81a244.93,244.93,0,0,0,25.3,1.23c8.5,0,15.18-.44,25.3-1.23ZM571.34,809.35c0,128.57-109.21,233.18-237.79,233.18S95.77,937.93,95.77,809.35V741.54h33.73V806.2c0,111.2,94.54,201.68,205.74,201.68S541,917.4,541,806.2V741.54h30.36Z" transform="translate(-7.97 -15.28)"/></svg>